<svg width="1600" height="900" viewBox="0 0 1600 900" xmlns="http://www.w3.org/2000/svg">
  <defs>
    <linearGradient id="bg" x1="0" y1="0" x2="1" y2="1">
      <stop offset="0" stop-color="#E8F2FF"/>
      <stop offset="1" stop-color="#F2FFF8"/>
    </linearGradient>
    <linearGradient id="line" x1="0" y1="0" x2="1" y2="0">
      <stop offset="0" stop-color="#007AFF"/>
      <stop offset="1" stop-color="#00C875"/>
    </linearGradient>
    <pattern id="geo" width="80" height="80" patternUnits="userSpaceOnUse">
      <path d="M0 40 L40 0 L80 40 L40 80 Z" fill="none" stroke="#DCE6F5" stroke-width="1"/>
    </pattern>
  </defs>
  <rect width="1600" height="900" fill="url(#bg)"/>
  <rect width="1600" height="900" fill="url(#geo)" opacity="0.35"/>
  <path d="M0 650 C300 600, 500 700, 800 640 S1300 620, 1600 660" stroke="url(#line)" stroke-width="4" fill="none" opacity="0.6"/>
  <path d="M0 700 C300 680, 600 720, 900 680 S1300 700, 1600 690" stroke="url(#line)" stroke-width="2" fill="none" opacity="0.35"/>
  <ellipse cx="1150" cy="560" rx="220" ry="90" fill="#ffffff" opacity="0.85"/>
  <circle cx="1080" cy="530" r="20" fill="#007AFF" opacity="0.9"/>
  <circle cx="1210" cy="540" r="14" fill="#00C875" opacity="0.9"/>
  <text x="120" y="220" font-family="Cairo, Noto Kufi Arabic, sans-serif" font-size="54" fill="#0B1B2B">نوم بذكاء</text>
  <text x="120" y="280" font-family="Cairo, Noto Kufi Arabic, sans-serif" font-size="24" fill="#3B4A5A">برنامج عربي ذكي لتحسين جودة النوم بالتحليل والعادات الذكية</text>
</svg>